<svg xmlns="http://www.w3.org/2000/svg" height="512" viewBox="0 -32 512.016 512" width="512"><path d="M389.332 448.008H58.668C26.305 448.008 0 421.703 0 389.34V58.676C0 26.312 26.305.008 58.668.008h266.664c8.832 0 16 7.168 16 16s-7.168 16-16 16H58.668C43.968 32.008 32 43.977 32 58.676V389.34c0 14.7 11.969 26.668 26.668 26.668h330.664c14.7 0 26.668-11.969 26.668-26.668V208.008c0-8.832 7.168-16 16-16s16 7.168 16 16V389.34c0 32.363-26.305 58.668-58.668 58.668zm0 0" data-original="#000000" class="active-path" data-old_color="#000000" fill="#005BEA"/><path d="M261.332 266.676c-4.094 0-8.191-1.559-11.305-4.696l-96-96c-6.25-6.25-6.25-16.382 0-22.632s16.383-6.25 22.633 0l84.695 84.691L484.691 4.703c6.254-6.254 16.387-6.254 22.637 0 6.25 6.25 6.25 16.383 0 22.633L272.66 262.004a16.03 16.03 0 01-11.328 4.672zm0 0" data-original="#000000" class="active-path" data-old_color="#000000" fill="#005BEA"/></svg>