<svg xmlns="http://www.w3.org/2000/svg" viewBox="0 0 511 512" width="512" height="512"><path d="M296.418 151.957c-5.52 0-9.996 4.48-9.996 10 0 5.516 4.476 9.996 9.996 9.996s9.996-4.48 9.996-9.996c0-5.52-4.477-10-9.996-10zm0 0M235.793 347.266a10.013 10.013 0 000-14.149c-3.906-3.898-10.234-3.898-14.145 0-3.898 3.91-3.898 10.238 0 14.149 3.91 3.898 10.239 3.898 14.145 0zm0 0" data-original="#000000" class="active-path" data-old_color="#000000" fill="#1BD1EA"/><path d="M115.652 509.043c3.875 3.906 10.184 3.95 14.11.082l48.468-47.75c8.235-8.234 10.739-20.426 7.118-31.023l10.425-10.055a29.814 29.814 0 0120.817-8.41h132.902c23.578 0 45.863-9.055 62.758-25.496.695-.676-5.277 6.359 90.668-108.313 14.23-16.836 12.102-42.117-4.75-56.363-16.746-14.113-41.832-12.086-56.102 4.46l-58.992 60.634c-7.449-9.168-18.808-14.883-31.082-14.883h-111.48c-15.864-6.637-32.696-9.996-50.063-9.996-48.125 0-90.168 22.218-112.734 63.922-9.504-1.801-19.528 1.074-26.738 8.285L3.418 381.836c-3.883 3.894-3.89 10.195-.016 14.098zm74.793-227.121c15.313 0 30.118 3.082 44.012 9.16a9.979 9.979 0 004.008.84h113.527c10.84 0 19.996 8.84 19.996 19.992 0 11.027-8.968 19.996-19.996 19.996h-81.566c-5.52 0-9.996 4.477-9.996 9.996 0 5.524 4.476 9.996 9.996 9.996h81.566c22.051 0 39.988-17.937 39.988-39.988 0-1.758-.125-3.5-.351-5.227 57.066-58.66 65.113-66.902 65.457-67.312 7.125-8.41 19.773-9.477 28.187-2.383 8.422 7.121 9.489 19.762 2.344 28.219L397.95 372.406c-13.094 12.57-30.285 19.489-48.457 19.489H216.59c-13.024 0-25.352 4.98-34.703 14.015l-8.496 8.2-78.32-78.317c18.304-34.34 52.652-53.871 95.374-53.871zm-125.32 66.344c3.297-3.297 8.36-3.891 12.379-1.407 1.527.93 87.035 86.649 87.562 87.356 2.926 3.941 2.508 9.539-.918 12.969l-41.32 40.707-98.23-98.98zm0 0M156.457 211.941h239.934c16.539 0 29.992-13.453 29.992-29.992V29.992C426.383 13.453 412.93 0 396.39 0H156.457c-16.539 0-29.992 13.453-29.992 29.992V181.95c0 16.54 13.453 29.992 29.992 29.992zm249.93-131.964H146.46V59.984h259.926zm-9.996 111.972H156.457c-5.512 0-9.996-4.488-9.996-10V99.973h259.926v81.976c0 5.512-4.485 10-9.996 10zM156.457 19.996h239.934c5.511 0 9.996 4.484 9.996 9.996v9.996H146.46v-9.996c0-5.512 4.484-9.996 9.996-9.996zm0 0" data-original="#000000" class="active-path" data-old_color="#000000" fill="#1BD1EA"/><path d="M376.395 151.957h-39.989c-5.52 0-9.996 4.477-9.996 10 0 5.52 4.477 9.996 9.996 9.996h39.989c5.523 0 10-4.476 10-9.996 0-5.523-4.477-10-10-10zm0 0" data-original="#000000" class="active-path" data-old_color="#000000" fill="#1BD1EA"/></svg>