<svg xmlns="http://www.w3.org/2000/svg" viewBox="0 0 512.009 512.009"><g fill="#f7ab48"><path d="M450.951 0h34.885v26.163h-34.885zM302.692 52.327h52.327v34.885h-52.327zM32.337 17.442h34.885v26.163H32.337z"/></g><g fill="#ffcb5a"><path d="M511.999 95.932l-43.605 47.356-43.606-47.356h26.163V61.048h34.885v34.884zM389.904 183.144l-61.048 61.048-61.048-61.048h34.884v-69.769h52.327v69.769zM93.385 113.375L49.779 160.73 6.174 113.375h26.163V78.49h34.885v34.885z"/></g><g fill="#1042a1"><path d="M343.717 337.615L169.324 512.008l-12.334-12.333 174.393-174.393zM202.399 409.893c-21.672 0-39.245-17.573-39.245-39.245 0-21.672 17.573-39.245 39.245-39.245s39.245 17.573 39.245 39.245c-.017 21.663-17.573 39.219-39.245 39.245zm0-61.048c-12.044 0-21.803 9.759-21.803 21.803s9.759 21.803 21.803 21.803 21.803-9.759 21.803-21.803-9.759-21.803-21.803-21.803zM298.332 505.825c-21.672 0-39.245-17.573-39.245-39.245 0-21.672 17.573-39.245 39.245-39.245s39.245 17.573 39.245 39.245c-.018 21.664-17.573 39.219-39.245 39.245zm0-61.047c-12.044 0-21.803 9.759-21.803 21.803s9.759 21.803 21.803 21.803 21.803-9.759 21.803-21.803-9.759-21.803-21.803-21.803z"/></g><path fill="#62beff" d="M125.72 215.47L12.346 328.844.013 316.511l113.374-113.374z"/><path fill="#ffcb5a" d="M500.76 459.67l-52.323 52.324-12.334-12.333 52.324-52.324z"/><g fill="#62beff"><path d="M31.64 263.378c-15.777-.026-28.544-12.829-28.518-28.605.026-15.777 12.829-28.544 28.605-28.518 15.742.026 28.492 12.776 28.518 28.518.009 15.794-12.794 28.597-28.588 28.605h-.017zm0-39.681c-6.14.026-11.102 5.023-11.076 11.163.026 6.14 5.023 11.102 11.163 11.076 6.14-.026 11.102-5.023 11.076-11.163-.009-6.131-4.98-11.085-11.111-11.076h-.052zM93.996 325.734c-15.777-.026-28.544-12.829-28.518-28.605.026-15.777 12.829-28.544 28.605-28.518 15.742.026 28.492 12.776 28.518 28.518.009 15.794-12.794 28.597-28.588 28.605h-.017zm0-39.681c-6.14.026-11.102 5.023-11.076 11.163.026 6.14 5.023 11.102 11.163 11.076 6.14-.026 11.102-5.023 11.076-11.163-.009-6.131-4.98-11.085-11.111-11.076h-.052zM198.039 313.961a8.701 8.701 0 01-6.166-2.555l-34.885-34.885 12.332-12.332 19.998 19.998v-83.601h17.442V305.24a8.719 8.719 0 01-8.721 8.721z"/><path d="M239.075 276.554l-34.884 34.884-12.334-12.333 34.885-34.885zM189.318 165.701h17.442v17.442h-17.442zM189.318 130.817h17.442v17.442h-17.442zM468.394 383.73a8.701 8.701 0 01-6.166-2.555l-34.884-34.885 12.332-12.332 19.998 19.998v-31.274h17.442v52.327a8.72 8.72 0 01-8.722 8.721z"/><path d="M509.452 346.286l-34.885 34.885-12.333-12.333 34.885-34.885zM459.673 287.797h17.442v17.442h-17.442zM459.673 244.192h17.442v26.163h-17.442z"/></g><path fill="#f7ab48" d="M302.692 8.721h52.327v17.442h-52.327z"/><g fill="#ffcb5a"><path d="M433.509 453.499h17.442v17.442h-17.442zM485.836 488.383h17.442v17.442h-17.442z"/></g></svg>