<svg xmlns="http://www.w3.org/2000/svg" viewBox="0 0 512 512"><path fill="#ffe1b2" d="M216 296l96-152v344h-96zM408 104l96-96v480h-96zM24 392l96-64v160H24z"/><path d="M504 0h-64c-4.422 0-8 3.578-8 8s3.578 8 8 8h44.687l-81.226 81.226-94.54 39.392c-.271.113-.448.334-.7.472a7.704 7.704 0 00-1.297.875 7.614 7.614 0 00-1.126 1.174c-.172.217-.412.349-.564.587l-88.731 140.491-41.479-76.046c-.177-.324-.47-.523-.683-.812-.335-.461-.654-.91-1.087-1.294-.415-.366-.877-.615-1.351-.884-.327-.188-.573-.467-.934-.611-.126-.051-.259-.027-.386-.072-.499-.172-1.008-.212-1.531-.284-.523-.071-1.03-.179-1.547-.146-.447.027-.87.179-1.313.283-.578.138-1.14.257-1.672.518-.112.055-.236.047-.347.107-.318.173-.513.462-.798.67-.465.338-.919.658-1.306 1.096-.375.423-.629.896-.902 1.38-.182.319-.456.558-.595.909l-47.077 117.692-93.931 62.621a7.994 7.994 0 00-2.219 11.094 8.002 8.002 0 0011.094 2.218l95.99-63.993c.789-.522 1.444-1.227 2.014-2.016.185-.255.316-.521.467-.793.168-.301.39-.556.521-.885l41.687-104.217 39.86 73.077c.087.159.218.274.314.425.141.223.3.418.464.627a7.825 7.825 0 001.723 1.646c.098.068.148.175.25.239.043.027.091.034.135.06.423.255.88.426 1.34.599.228.086.443.218.675.281.583.161 1.188.224 1.797.25.107.004.212.044.319.044l.008-.001.007.001c.821 0 1.638-.175 2.442-.436.468-.151.938-.303 1.373-.539l.006-.002s.009-.009.015-.012c.81-.442 1.511-1.076 2.141-1.797.147-.168.288-.326.419-.505.113-.154.258-.271.362-.436l94.652-149.865L411 111.416a.244.244 0 00.024-.01l.057-.024c.522-.217.9-.602 1.349-.91.409-.279.867-.454 1.229-.817l.04-.04.024-.024L496 27.312V72c0 4.422 3.578 8 8 8s8-3.578 8-8V8c0-4.422-3.578-8-8-8z" fill="#ff4f19"/><path d="M24 512c-4.422 0-8-3.578-8-8v-16c0-4.422 3.578-8 8-8s8 3.578 8 8v16c0 4.422-3.578 8-8 8zM120 512c-4.422 0-8-3.578-8-8v-16c0-4.422 3.578-8 8-8 4.422 0 8 3.578 8 8v16c0 4.422-3.578 8-8 8zM216 512c-4.422 0-8-3.578-8-8v-16c0-4.422 3.578-8 8-8s8 3.578 8 8v16c0 4.422-3.578 8-8 8zM312 512c-4.422 0-8-3.578-8-8v-16c0-4.422 3.578-8 8-8s8 3.578 8 8v16c0 4.422-3.578 8-8 8zM408 512c-4.422 0-8-3.578-8-8v-16c0-4.422 3.578-8 8-8 4.422 0 8 3.578 8 8v16c0 4.422-3.578 8-8 8zM24 112H8c-4.422 0-8-3.578-8-8 0-4.422 3.578-8 8-8h16c4.422 0 8 3.578 8 8 0 4.422-3.578 8-8 8zM24 208H8c-4.422 0-8-3.578-8-8 0-4.422 3.578-8 8-8h16c4.422 0 8 3.578 8 8 0 4.422-3.578 8-8 8zM24 304H8c-4.422 0-8-3.578-8-8s3.578-8 8-8h16c4.422 0 8 3.578 8 8s-3.578 8-8 8zM24 400H8c-4.422 0-8-3.578-8-8s3.578-8 8-8h16c4.422 0 8 3.578 8 8s-3.578 8-8 8z" fill="#5c546a"/><path d="M24 496H8c-4.422 0-8-3.578-8-8s3.578-8 8-8h16c4.422 0 8 3.578 8 8s-3.578 8-8 8z" fill="#5c546a"/><path d="M504 496H24c-4.422 0-8-3.578-8-8V8c0-4.422 3.578-8 8-8s8 3.578 8 8v472h472c4.422 0 8 3.578 8 8s-3.578 8-8 8z" fill="#5c546a"/><path d="M312 336c-2.078 0-4.164-.883-5.68-2.32-1.445-1.523-2.32-3.523-2.32-5.68 0-2.164.875-4.242 2.32-5.68 2.961-2.961 8.32-2.961 11.359 0 1.438 1.516 2.32 3.516 2.32 5.68 0 2.078-.883 4.156-2.32 5.68-1.523 1.437-3.601 2.32-5.679 2.32zM312 304c-2.078 0-4.164-.883-5.68-2.32-1.445-1.523-2.32-3.523-2.32-5.68 0-2.164.875-4.164 2.32-5.68 3.039-2.961 8.32-2.961 11.359 0 1.438 1.516 2.32 3.516 2.32 5.68 0 2.156-.883 4.156-2.32 5.68-1.523 1.437-3.601 2.32-5.679 2.32zM312 272c-2.078 0-4.164-.883-5.68-2.32-1.445-1.523-2.32-3.523-2.32-5.68 0-2.164.875-4.164 2.32-5.68 3.039-2.961 8.32-2.961 11.359 0 1.438 1.516 2.32 3.602 2.32 5.68 0 2.156-.883 4.156-2.32 5.68-1.523 1.437-3.601 2.32-5.679 2.32zM312 240c-2.078 0-4.164-.883-5.68-2.32-1.445-1.523-2.32-3.523-2.32-5.68 0-2.164.875-4.164 2.32-5.68 3.039-2.961 8.32-2.961 11.359 0 1.438 1.516 2.32 3.602 2.32 5.68 0 2.156-.883 4.156-2.32 5.68-1.523 1.437-3.601 2.32-5.679 2.32zM312 208c-2.078 0-4.164-.883-5.68-2.32-1.445-1.523-2.32-3.523-2.32-5.68 0-2.164.875-4.164 2.32-5.68 2.961-2.961 8.398-2.961 11.359 0 1.438 1.516 2.32 3.602 2.32 5.68s-.883 4.156-2.32 5.68c-1.523 1.437-3.601 2.32-5.679 2.32zM312 464c-2.078 0-4.164-.883-5.68-2.32-1.445-1.523-2.32-3.523-2.32-5.68 0-2.164.875-4.164 2.32-5.68 2.961-2.961 8.398-2.961 11.359 0 1.438 1.516 2.32 3.602 2.32 5.68s-.883 4.156-2.32 5.68c-1.523 1.437-3.601 2.32-5.679 2.32zM312 432c-2.078 0-4.164-.805-5.68-2.32-1.445-1.523-2.32-3.523-2.32-5.68 0-2.164.875-4.242 2.32-5.68 2.961-2.961 8.398-2.961 11.359 0 1.438 1.516 2.32 3.516 2.32 5.68 0 2.078-.883 4.156-2.32 5.68-1.523 1.515-3.601 2.32-5.679 2.32zM312 400c-2.078 0-4.164-.883-5.68-2.32-1.445-1.523-2.32-3.602-2.32-5.68 0-2.164.875-4.242 2.32-5.68 2.961-2.961 8.398-2.961 11.359 0 1.438 1.516 2.32 3.516 2.32 5.68 0 2.078-.883 4.156-2.32 5.68-1.523 1.437-3.601 2.32-5.679 2.32zM312 368c-2.078 0-4.164-.883-5.68-2.32-1.445-1.523-2.32-3.602-2.32-5.68 0-2.164.875-4.242 2.32-5.68 2.961-2.961 8.32-2.961 11.359 0 1.438 1.516 2.32 3.516 2.32 5.68 0 2.078-.883 4.156-2.32 5.68-1.523 1.437-3.601 2.32-5.679 2.32z" fill="#ff4f19"/><g><path d="M408 336c-2.164 0-4.164-.883-5.68-2.32-1.445-1.523-2.32-3.523-2.32-5.68 0-2.164.875-4.242 2.32-5.68 2.875-2.883 8.398-2.961 11.359 0 1.438 1.516 2.32 3.516 2.32 5.68 0 2.156-.883 4.156-2.32 5.68-1.523 1.437-3.523 2.32-5.679 2.32zM408 304c-2.078 0-4.164-.883-5.68-2.32-1.445-1.523-2.32-3.602-2.32-5.68s.875-4.164 2.32-5.68c2.961-2.961 8.398-2.961 11.359 0 1.438 1.516 2.32 3.602 2.32 5.68s-.883 4.156-2.32 5.68c-1.523 1.437-3.601 2.32-5.679 2.32zM408 272c-2.164 0-4.164-.883-5.68-2.32-1.445-1.523-2.32-3.523-2.32-5.68 0-2.164.875-4.164 2.32-5.68 2.961-2.961 8.398-2.961 11.359 0 1.438 1.516 2.32 3.516 2.32 5.68 0 2.156-.883 4.156-2.32 5.68-1.523 1.437-3.523 2.32-5.679 2.32zM408 240c-2.078 0-4.164-.883-5.68-2.32-1.445-1.523-2.32-3.602-2.32-5.68s.875-4.164 2.32-5.68c2.961-2.961 8.398-2.961 11.359 0 1.438 1.516 2.32 3.602 2.32 5.68s-.883 4.156-2.32 5.68c-1.523 1.437-3.601 2.32-5.679 2.32zM408 208c-2.164 0-4.164-.883-5.68-2.32-1.445-1.523-2.32-3.523-2.32-5.68 0-2.164.875-4.164 2.32-5.68 2.961-2.961 8.398-2.961 11.359 0 1.438 1.516 2.32 3.516 2.32 5.68 0 2.156-.883 4.156-2.32 5.68-1.523 1.437-3.523 2.32-5.679 2.32zM408 176c-2.078 0-4.164-.883-5.68-2.32-1.445-1.523-2.32-3.602-2.32-5.68s.875-4.164 2.32-5.68c2.961-2.961 8.398-2.961 11.359 0 1.438 1.516 2.32 3.602 2.32 5.68s-.883 4.156-2.32 5.68c-1.523 1.437-3.601 2.32-5.679 2.32zM408 144c-2.078 0-4.164-.883-5.68-2.32-1.445-1.523-2.32-3.602-2.32-5.68 0-2.164.875-4.164 2.32-5.68 2.961-2.961 8.398-2.961 11.359 0 1.438 1.516 2.32 3.516 2.32 5.68 0 2.078-.883 4.156-2.32 5.68-1.523 1.437-3.601 2.32-5.679 2.32zM408 464c-2.164 0-4.164-.883-5.68-2.398A7.924 7.924 0 01400 456c0-2.078.875-4.164 2.32-5.68 2.961-2.961 8.398-2.961 11.359 0 1.438 1.516 2.32 3.602 2.32 5.68 0 2.156-.883 4.156-2.398 5.68A7.957 7.957 0 01408 464zM408 432c-2.078 0-4.164-.883-5.68-2.32-1.445-1.523-2.32-3.602-2.32-5.68 0-2.164.875-4.164 2.32-5.68 2.961-2.961 8.398-2.961 11.359 0 1.438 1.516 2.32 3.516 2.32 5.68 0 2.078-.883 4.156-2.32 5.68-1.523 1.437-3.601 2.32-5.679 2.32zM408 400c-2.164 0-4.164-.883-5.68-2.32-1.445-1.523-2.32-3.523-2.32-5.68 0-2.164.875-4.164 2.32-5.68 2.961-2.961 8.398-2.961 11.359 0 1.438 1.516 2.32 3.602 2.32 5.68 0 2.156-.883 4.156-2.32 5.68-1.523 1.437-3.523 2.32-5.679 2.32zM408 368c-2.078 0-4.164-.883-5.68-2.32-1.445-1.523-2.32-3.602-2.32-5.68 0-2.164.875-4.242 2.32-5.68 2.961-2.961 8.398-2.961 11.359.078a7.929 7.929 0 012.32 5.602c0 2.078-.883 4.156-2.32 5.68-1.523 1.437-3.601 2.32-5.679 2.32z" fill="#e9001e"/></g><g><path d="M216 336c-2.078 0-4.164-.883-5.68-2.32-1.445-1.523-2.32-3.602-2.32-5.68s.875-4.164 2.32-5.68c2.961-2.961 8.398-2.961 11.359 0 1.438 1.516 2.32 3.602 2.32 5.68s-.883 4.156-2.32 5.68c-1.523 1.437-3.601 2.32-5.679 2.32zM216 464c-2.078 0-4.164-.883-5.68-2.32-1.445-1.523-2.32-3.602-2.32-5.68 0-2.164.875-4.164 2.32-5.68 3.039-2.961 8.32-2.961 11.359 0 1.438 1.516 2.32 3.602 2.32 5.68s-.883 4.156-2.32 5.68c-1.523 1.437-3.601 2.32-5.679 2.32zM216 432c-2.078 0-4.164-.883-5.68-2.32-1.445-1.523-2.32-3.602-2.32-5.68s.875-4.164 2.32-5.68c3.039-2.961 8.32-2.961 11.359 0 1.438 1.516 2.32 3.602 2.32 5.68s-.883 4.156-2.32 5.68c-1.523 1.437-3.601 2.32-5.679 2.32zM216 400c-2.078 0-4.164-.883-5.68-2.32-1.445-1.523-2.32-3.523-2.32-5.68 0-2.164.875-4.164 2.32-5.68 3.039-2.961 8.32-2.961 11.359 0 1.438 1.516 2.32 3.602 2.32 5.68s-.883 4.156-2.32 5.68c-1.523 1.437-3.601 2.32-5.679 2.32zM216 368c-2.078 0-4.164-.883-5.68-2.32-1.445-1.523-2.32-3.602-2.32-5.68s.875-4.164 2.32-5.68c2.961-2.961 8.398-2.961 11.359 0 1.438 1.516 2.32 3.602 2.32 5.68s-.883 4.156-2.32 5.68c-1.523 1.437-3.601 2.32-5.679 2.32z" fill="#ff9600"/></g><g><path d="M120 464c-2.078 0-4.164-.883-5.68-2.32-1.445-1.523-2.32-3.602-2.32-5.68 0-2.164.875-4.164 2.32-5.68 2.961-2.961 8.32-2.961 11.359 0 1.438 1.516 2.32 3.516 2.32 5.68 0 2.078-.883 4.156-2.32 5.68-1.523 1.437-3.601 2.32-5.679 2.32zM120 432c-2.078 0-4.164-.883-5.68-2.32-1.445-1.523-2.32-3.602-2.32-5.68s.875-4.164 2.32-5.68c2.961-2.961 8.398-2.961 11.359 0 1.438 1.516 2.32 3.602 2.32 5.68 0 2.156-.883 4.156-2.32 5.68-1.523 1.437-3.601 2.32-5.679 2.32zM120 400c-2.078 0-4.164-.883-5.68-2.32-1.445-1.523-2.32-3.523-2.32-5.68 0-2.078.875-4.164 2.32-5.68 2.961-2.961 8.32-2.961 11.359 0 1.438 1.516 2.32 3.516 2.32 5.68 0 2.156-.883 4.156-2.32 5.68-1.523 1.437-3.601 2.32-5.679 2.32zM120 368c-2.078 0-4.164-.883-5.68-2.32-1.445-1.523-2.32-3.602-2.32-5.68 0-2.164.875-4.164 2.32-5.68 2.961-2.961 8.32-2.961 11.359 0 1.438 1.516 2.32 3.516 2.32 5.68 0 2.078-.883 4.156-2.32 5.68-1.523 1.437-3.601 2.32-5.679 2.32z" fill="#ffd200"/></g></svg>