<svg xmlns="http://www.w3.org/2000/svg" viewBox="0 0 491.52 491.52"><path d="M402.168 51.721L12.955 158.086c-9.369 2.56-14.889 12.231-12.329 21.6L67.751 425.31c2.56 9.369 12.232 14.888 21.601 12.328l389.213-106.365c9.371-2.561 14.889-12.231 12.329-21.6L423.769 64.049c-2.561-9.369-12.23-14.889-21.601-12.328z" fill="#2d93ba"/><g fill="#fff"><path d="M175.67 278.233L65.476 308.346l-3.685-13.484 110.194-30.113zM241.322 300.617L75.75 345.864l-3.685-13.483 165.573-45.247z"/></g><path fill="#3a556a" d="M444.467 139.676L21.314 255.313 8.85 209.703 432.004 94.068z"/><path d="M421.072 150.622H17.587C7.874 150.622 0 158.496 0 168.209V422.84c0 9.713 7.874 17.586 17.587 17.586h403.485c9.714 0 17.587-7.873 17.587-17.586V168.209c0-9.713-7.873-17.587-17.587-17.587z" fill="#2d93ba"/><path d="M421.072 134.671H17.587C7.874 134.671 0 142.545 0 152.258v254.631c0 9.713 7.874 17.586 17.587 17.586h403.485c9.714 0 17.587-7.873 17.587-17.586V152.258c0-9.713-7.873-17.587-17.587-17.587z" fill="#27a2db"/><path d="M93.195 170.064H35.403a5.756 5.756 0 00-5.756 5.756v57.792a5.756 5.756 0 005.756 5.757h57.792a5.757 5.757 0 005.756-5.757V175.82a5.757 5.757 0 00-5.756-5.756z" fill="#fcd462"/><circle cx="390.349" cy="385.434" r="22.589" fill="#e56353"/><circle cx="360.858" cy="385.434" r="22.589" fill="#fcd462"/><g fill="#fff"><path d="M29.65 279.45h114.237v13.978H29.65zM29.65 371.456h42.348v13.978H29.65zM106.03 371.456h42.348v13.978H106.03zM182.41 371.456h42.348v13.978H182.41zM258.816 371.456h42.348v13.978h-42.348zM29.65 318.413h171.648v13.978H29.65z"/></g></svg>