<svg xmlns="http://www.w3.org/2000/svg" viewBox="0 0 511.984 511.984"><path d="M85.323 0c-5.875 0-10.671 4.796-10.671 10.655v490.657c0 5.859 2.406 10.672 5.344 10.672 2.922 0 9.625-2.156 14.859-4.781l23.593-11.797c5.25-2.608 13.828-2.608 19.078 0l23.593 11.797c5.234 2.625 13.828 2.625 19.078 0l23.577-11.797c5.25-2.608 13.844-2.608 19.078 0l23.593 11.797c5.25 2.625 13.827 2.625 19.077 0l23.594-11.797c5.25-2.608 13.844-2.608 19.093 0l23.562 11.797c5.25 2.625 13.844 2.625 19.094 0l23.593-11.797c5.25-2.608 13.812-2.608 19.062 0l23.594 11.797c5.25 2.625 11.938 4.781 14.875 4.781s5.344-4.812 5.344-10.672V10.655C437.332 4.796 432.52 0 426.645 0H85.323z" fill="#ffce54"/><g fill="#656d78"><path d="M341.331 298.646h42.655c5.874 0 10.655-4.765 10.655-10.655 0-5.906-4.781-10.672-10.655-10.672h-42.655c-5.906 0-10.688 4.766-10.688 10.672 0 5.891 4.781 10.655 10.688 10.655zM383.986 319.99h-42.655c-5.906 0-10.688 4.766-10.688 10.656s4.781 10.671 10.688 10.671h42.655c5.874 0 10.655-4.78 10.655-10.671s-4.782-10.656-10.655-10.656zM255.99 277.319H127.993a10.656 10.656 0 00-10.671 10.672c0 5.891 4.765 10.655 10.671 10.655H255.99c5.875 0 10.656-4.765 10.656-10.655-.001-5.906-4.783-10.672-10.656-10.672z"/></g><g fill="#434a54"><path d="M383.986 405.316h-42.655c-5.906 0-10.688 4.766-10.688 10.671 0 5.875 4.781 10.656 10.688 10.656h42.655c5.874 0 10.655-4.781 10.655-10.656 0-5.905-4.782-10.671-10.655-10.671zM170.648 405.316h-42.655a10.656 10.656 0 00-10.671 10.671c0 5.875 4.765 10.656 10.671 10.656h42.655c5.891 0 10.672-4.781 10.672-10.656 0-5.905-4.782-10.671-10.672-10.671z"/></g><path d="M192.523 320.006v-.016h-64.529c-5.906 0-10.671 4.766-10.671 10.656s4.765 10.671 10.671 10.671h64.529v-.031c5.641-.281 10.125-4.921 10.125-10.64-.002-5.703-4.485-10.359-10.125-10.64z" fill="#656d78"/><g fill="#f6bb42"><path d="M138.648 373.316c0 5.891-4.781 10.672-10.656 10.672-5.906 0-10.671-4.781-10.671-10.672s4.765-10.672 10.671-10.672c5.876 0 10.656 4.782 10.656 10.672zM181.32 373.316c0 5.891-4.781 10.672-10.672 10.672-5.89 0-10.656-4.781-10.656-10.672s4.766-10.672 10.656-10.672c5.89 0 10.672 4.782 10.672 10.672zM223.99 373.316c0 5.891-4.781 10.672-10.671 10.672-5.891 0-10.672-4.781-10.672-10.672s4.781-10.672 10.672-10.672c5.889 0 10.671 4.782 10.671 10.672zM266.645 373.316c0 5.891-4.781 10.672-10.656 10.672-5.906 0-10.671-4.781-10.671-10.672s4.766-10.672 10.671-10.672c5.874 0 10.656 4.782 10.656 10.672zM309.332 373.316c0 5.891-4.781 10.672-10.687 10.672-5.875 0-10.656-4.781-10.656-10.672s4.781-10.672 10.656-10.672c5.906 0 10.687 4.782 10.687 10.672zM351.987 373.316c0 5.891-4.781 10.672-10.656 10.672-5.906 0-10.688-4.781-10.688-10.672s4.781-10.672 10.688-10.672c5.875 0 10.656 4.782 10.656 10.672zM394.641 373.316c0 5.891-4.781 10.672-10.655 10.672-5.906 0-10.656-4.781-10.656-10.672s4.75-10.672 10.656-10.672c5.873 0 10.655 4.782 10.655 10.672z"/></g><g fill="#434a54"><path d="M280.613 68.388a10.683 10.683 0 00-8.625-4.391c-5.906 0-10.672 4.766-10.672 10.655 0 2.344.766 4.516 2.047 6.266l-.016.016 38.453 52.89 17.249-12.547-38.436-52.889zM239.99 63.998a10.636 10.636 0 00-8.625 4.391h-.016l-38.437 52.889 17.25 12.547 38.452-52.89-.016-.016a10.59 10.59 0 002.047-6.266c.001-5.89-4.78-10.655-10.655-10.655z"/></g><path fill="#ed5564" d="M319.987 223.993H191.991l-21.343-106.669h170.683z"/><g fill="#da4453"><path d="M341.331 117.324H170.648c-5.89 0-10.656 4.781-10.656 10.672s4.766 10.655 10.656 10.655h170.683c5.875 0 10.656-4.765 10.656-10.655s-4.781-10.672-10.656-10.672zM234.646 149.323c-5.891 0-10.656 4.781-10.656 10.672v31.999c0 5.891 4.766 10.656 10.656 10.656s10.671-4.766 10.671-10.656v-31.999c.001-5.891-4.781-10.672-10.671-10.672zM277.332 149.323c-5.906 0-10.688 4.781-10.688 10.672v31.999c0 5.891 4.781 10.656 10.688 10.656 5.875 0 10.656-4.766 10.656-10.656v-31.999c0-5.891-4.781-10.672-10.656-10.672z"/></g></svg>