<svg xmlns="http://www.w3.org/2000/svg" width="512" height="512" class="hovered-paths"><path d="M85.072 454.931c-1.859-1.861-4.439-2.93-7.069-2.93s-5.21 1.069-7.07 2.93c-1.86 1.861-2.93 4.44-2.93 7.07s1.069 5.21 2.93 7.069c1.86 1.86 4.44 2.931 7.07 2.931s5.21-1.07 7.069-2.931c1.86-1.859 2.931-4.439 2.931-7.069s-1.07-5.21-2.931-7.07zM469.524 182.938a10.054 10.054 0 00-7.07-2.93c-2.63 0-5.21 1.069-7.07 2.93-1.859 1.86-2.93 4.44-2.93 7.07s1.07 5.21 2.93 7.069a10.077 10.077 0 007.07 2.931c2.64 0 5.21-1.07 7.07-2.931 1.869-1.859 2.939-4.439 2.939-7.069s-1.07-5.21-2.939-7.07z" data-original="#000000" class="hovered-path active-path" data-old_color="#000000" fill="#1BD1EA"/><path d="M509.065 2.929A10.006 10.006 0 00501.992 0L255.998.013c-5.522 0-9.999 4.478-9.999 10V38.61L151.21 64.009c-5.335 1.43-8.501 6.913-7.071 12.247l49.127 183.342-42.499 42.499c-5.409-7.898-14.491-13.092-24.764-13.092H30.006c-16.542 0-29.999 13.458-29.999 29.999V482c0 16.542 13.457 30 29.999 30h95.998c14.053 0 25.875-9.716 29.115-22.78l11.89 10.369a50.382 50.382 0 0033.118 12.412h301.867c5.522 0 10-4.478 10-10V10a10.01 10.01 0 00-2.929-7.071zM136.002 482.001c0 5.513-4.486 10-10 10H30.005c-5.514 0-10-4.486-10-10V319.005c0-5.514 4.486-10 10-10h37.999V424.2c0 5.522 4.478 10 10 10s10-4.478 10-10V309.005h37.999c5.514 0 10 4.486 10 10v162.996zm30.043-401.262l79.954-21.424V96.37l-6.702 1.796a9.997 9.997 0 00-7.071 12.247c3.843 14.341-4.698 29.134-19.039 32.977a9.998 9.998 0 00-7.066 12.267L245.1 299.995h-20.07l-10.343-40.464a9.985 9.985 0 00-1.676-3.507L166.045 80.739zm79.954 61.49v84.381l-18.239-67.535c7.619-3.934 13.854-9.82 18.239-16.846zM389.663 492H200.125a30.388 30.388 0 01-19.974-7.485l-24.149-21.061V325.147l43.658-43.658 7.918 30.98a10 10 0 009.688 7.523l196.604.012c7.72 0 14 6.28 14 14s-6.28 14-14 14H313.13c-5.522 0-10 4.478-10 10s4.478 10 10 10h132.04c7.72 0 14 6.28 14 14s-6.28 14-14 14H313.13c-5.522 0-10 4.478-10 10s4.478 10 10 10h110.643c7.72 0 14 6.28 14 14s-6.28 14-14 14H313.13c-5.522 0-10 4.478-10 10s4.478 10 10 10h76.533c7.72 0 14 6.28 14 14-.001 7.716-6.281 13.996-14 13.996zm102.331 0h-71.36c1.939-4.273 3.028-9.01 3.028-14s-1.089-9.727-3.028-14h3.139c18.747 0 33.999-15.252 33.999-33.999a33.778 33.778 0 00-3.609-15.217c14.396-3.954 25.005-17.149 25.005-32.782a33.816 33.816 0 00-6.711-20.255v-126.74c0-5.522-4.478-10-10-10s-10 4.478-10 10v113.792a34.008 34.008 0 00-7.289-.795h-.328a33.79 33.79 0 003.028-14c0-18.748-15.252-33.999-33.999-33.999h-16.075c17.069-7.32 29.057-24.286 29.057-44.005 0-26.389-21.468-47.858-47.857-47.858-26.388 0-47.857 21.469-47.857 47.858 0 19.719 11.989 36.685 29.057 44.005h-54.663V109.863c17.864-3.893 31.96-17.988 35.852-35.853h75.221c3.892 17.865 17.988 31.96 35.852 35.853v31.09c0 5.522 4.478 10 10 10s10-4.478 10-10v-40.018c0-5.522-4.478-10-10-10-14.847 0-26.924-12.079-26.924-26.925 0-5.522-4.478-10-10-10h-93.076c-5.522 0-10 4.478-10 10 0 14.847-12.078 26.925-26.924 26.925-5.522 0-10 4.478-10 10v199.069H266V20.011L491.994 20v472zM378.996 283.858c-15.361 0-27.857-12.497-27.857-27.857s12.497-27.858 27.857-27.858S406.853 240.64 406.853 256s-12.496 27.858-27.857 27.858z" data-original="#000000" class="hovered-path active-path" data-old_color="#000000" fill="#1BD1EA"/></svg>