<svg height="512pt" viewBox="0 0 512 512" width="512pt" xmlns="http://www.w3.org/2000/svg"><path d="M437.727 235.672c-8.375 0-15.872-5.875-17.618-14.395-15.914-77.765-85.175-134.21-164.691-134.21-64.86 0-124.61 37.945-152.223 96.667-4.23 8.996-14.957 12.86-23.949 8.633-8.992-4.23-12.86-14.953-8.629-23.949 33.52-71.29 106.059-117.352 184.801-117.352 96.539 0 180.633 68.551 199.96 162.993 1.993 9.742-4.288 19.25-14.026 21.246-1.215.246-2.43.367-3.625.367zm0 0" fill="#ff8354"/><path d="M86.773 193.559a17.994 17.994 0 01-17.726-14.875l-13.098-74.282c-1.726-9.789 4.809-19.125 14.598-20.851 9.793-1.727 19.129 4.808 20.851 14.597l9.973 56.559 56.559-9.973c9.789-1.722 19.125 4.809 20.851 14.602 1.727 9.789-4.812 19.125-14.601 20.851l-74.282 13.098c-1.039.184-2.085.274-3.125.274zm0 0" fill="#ff8354"/><g fill="#ffac8c"><path d="M69.61 180.926c.206.73.44 1.453.738 2.152a.91.91 0 00.043-.11 18.362 18.362 0 01-.782-2.042zm0 0M455.379 214.059C436.055 119.617 351.957 51.066 255.422 51.066c-62.262 0-120.621 28.817-158.902 76.11l2.03 11.511c38.298-45.816 95.708-73.62 156.872-73.62 95.215 0 178.277 66.703 199.082 159.144a17.901 17.901 0 00.875-10.152zm0 0M68.887 177.79l.156.894c.012.054.027.105.035.156zm0 0M73.195 97.547c8.114-1.367 15.914 2.48 19.688 9.023l-1.485-8.422c-1.722-9.789-11.062-16.324-20.851-14.597-9.79 1.726-16.328 11.062-14.598 20.851l1.758 9.985c.418-8.207 6.684-15.352 15.488-16.84zm0 0"/></g><path d="M256 460.105c-96.54 0-180.633-68.546-199.96-162.992-1.993-9.738 4.288-19.25 14.026-21.242 9.735-1.992 19.25 4.285 21.243 14.024 15.914 77.765 85.175 134.21 164.695 134.21 64.86 0 124.61-37.945 152.219-96.667 4.23-9 14.957-12.86 23.949-8.633 8.996 4.23 12.86 14.953 8.629 23.949C407.28 414.043 334.742 460.105 256 460.105zm0 0" fill="#ff8354"/><path d="M412.871 372.484c-38.3 45.82-95.71 73.621-156.871 73.621-95.215 0-178.281-66.699-199.086-159.14a17.931 17.931 0 00-.875 10.148c19.328 94.446 103.422 162.992 199.957 162.992 62.262 0 120.621-28.812 158.902-76.105zm0 0M441.8 330.219a17.711 17.711 0 00-.73-2.125c-.011.035-.027.07-.043.105.293.653.559 1.324.774 2.02zm0 0" fill="#e0734a"/><path d="M437.723 427.902c-8.57 0-16.164-6.14-17.703-14.875l-9.973-56.554-56.555 9.972c-9.789 1.73-19.125-4.808-20.851-14.597-1.727-9.793 4.808-19.13 14.597-20.856l74.285-13.097c9.79-1.723 19.125 4.812 20.852 14.601l13.098 74.281c1.726 9.79-4.813 19.125-14.602 20.852-1.058.184-2.11.273-3.148.273zm0 0" fill="#ff8354"/><path d="M455.473 406.773l-.86-4.878c-2.293 5.914-7.886 10.562-15.12 11.73a21.474 21.474 0 01-3.442.277c-7.555 0-14.41-4.004-17.664-10.132l1.633 9.253c1.539 8.735 9.132 14.875 17.707 14.875 1.039 0 2.09-.09 3.148-.273 9.785-1.727 16.324-11.062 14.598-20.852zm0 0" fill="#e0734a"/><path d="M491.758 253.375h-184.48c-11.825 0-21.133-10.094-20.173-21.879l18.372-226.21A5.753 5.753 0 01311.21 0h176.613c2.996 0 5.492 2.3 5.735 5.285l18.375 226.211c.957 11.785-8.352 21.879-20.176 21.879zm0 0" fill="#d476e2"/><path d="M309.637 9.512h179.758a5.88 5.88 0 014.695 2.312l-.531-6.539A5.753 5.753 0 00487.824 0H311.211a5.753 5.753 0 00-5.734 5.285l-.532 6.54a5.878 5.878 0 014.692-2.313zm0 0" fill="#ea82fa"/><path d="M511.605 227.484c-1.792 9.258-9.921 16.383-19.847 16.383h-184.48c-9.93 0-18.06-7.125-19.852-16.383l-.324 4.012c-.961 11.785 8.347 21.879 20.171 21.879h184.48c11.825 0 21.134-10.094 20.177-21.879zm0 0" fill="#b665c2"/><path d="M352.516 37.707c0 6.246-5.067 11.313-11.313 11.313-6.25 0-11.316-5.067-11.316-11.313 0-6.25 5.066-11.316 11.316-11.316 6.246 0 11.313 5.066 11.313 11.316zm0 0M469.148 37.707c0 6.246-5.066 11.313-11.312 11.313-6.25 0-11.316-5.067-11.316-11.313 0-6.25 5.066-11.316 11.316-11.316 6.246 0 11.312 5.066 11.312 11.316zm0 0" fill="#ffefe4"/><path d="M457.55 31.531a6.863 6.863 0 00-6.859 6.86v50.062c0 28.25-22.558 51.692-50.808 51.969-28.524.273-51.82-22.852-51.82-51.313V38.395a6.86 6.86 0 00-6.86-6.86c-3.789 0-6.86 3.07-6.86 6.86v49.882c0 35.809 28.59 65.516 64.391 65.864 36.157.347 65.68-28.957 65.68-65.032V38.395a6.868 6.868 0 00-6.863-6.864zm0 0" fill="#ffefe4"/><path d="M263.828 380.086C263.828 452.94 204.77 512 131.914 512 59.06 512 0 452.941 0 380.086c0-72.856 59.059-131.914 131.914-131.914 72.856 0 131.914 59.058 131.914 131.914zm0 0" fill="#69ebfc"/><path d="M131.914 267.27c69.64 0 126.633 53.972 131.531 122.367.227-3.16.383-6.336.383-9.551 0-72.856-59.058-131.914-131.914-131.914C59.06 248.172 0 307.23 0 380.086c0 3.215.156 6.39.383 9.55C5.28 321.243 62.277 267.27 131.914 267.27zm0 0" fill="#a1f1fc"/><path d="M131.914 492.902c-69.64 0-126.633-53.972-131.531-122.367-.227 3.16-.383 6.336-.383 9.55C0 452.942 59.059 512 131.914 512c72.856 0 131.914-59.059 131.914-131.914 0-3.215-.156-6.39-.383-9.55-4.898 68.394-61.89 122.366-131.53 122.366zm0 0" fill="#5fd4e3"/><path d="M223.238 380.086c0 50.437-40.886 91.324-91.324 91.324S40.59 430.523 40.59 380.086s40.887-91.324 91.324-91.324 91.324 40.886 91.324 91.324zm0 0" fill="#5fd4e3"/><path d="M125.23 440.563c-8.632-1.266-16.316-4.602-23.054-10.02-3.934-3.156-7.203-7.117-9.817-11.879-3.171-5.777-.695-13.043 5.407-15.535 4.851-1.984 10.539-.3 13.246 4.187a30.114 30.114 0 003.004 4.137c3.101 3.629 6.84 6.137 11.214 7.512v-32.82l-1.539-.696c-4.261-1.61-8.27-3.504-12.007-5.703-3.743-2.18-7.028-4.719-9.844-7.594a33.818 33.818 0 01-6.742-9.761c-1.676-3.63-2.52-7.688-2.52-12.184 0-4.14.758-8.059 2.25-11.746a30.273 30.273 0 016.488-9.844c2.82-2.879 6.239-5.273 10.282-7.172 4.023-1.902 8.57-3.136 13.632-3.715v-7.167a7.69 7.69 0 0115.38 0v7.511c4.609.688 8.617 1.903 12.007 3.63 3.403 1.73 6.313 3.741 8.82 5.96.961.856 1.895 1.875 2.774 2.973 4.363 5.465 2.148 13.629-4.238 16.48-4.375 1.95-9.41.73-12.633-2.82-1.692-1.86-3.91-3.688-6.73-4.977v30.926c4.96 2.078 9.44 4.211 13.48 6.399 4.023 2.187 7.48 4.66 10.363 7.425 2.887 2.758 5.067 5.903 6.559 9.41 1.508 3.524 2.246 7.579 2.246 12.184 0 5.184-.887 9.793-2.664 13.816-1.797 4.036-4.18 7.489-7.18 10.368-3.004 2.882-6.473 5.187-10.45 6.918a51.47 51.47 0 01-12.359 3.62v7.512a7.687 7.687 0 01-7.687 7.688 7.687 7.687 0 01-7.688-7.688zm-11.382-90.352c0 2.766.886 5.156 2.664 7.168 1.793 2.02 4.695 4.066 8.718 6.14v-25.222c-3.453.922-6.203 2.414-8.28 4.484-2.083 2.078-3.102 4.555-3.102 7.43zm37.308 55.633c0-2.996-.8-5.477-2.43-7.43-1.609-1.96-4.312-3.918-8.117-5.879v26.43c3.121-1.031 5.653-2.672 7.614-4.922 1.945-2.246 2.933-4.98 2.933-8.2zm0 0" fill="#a1f1fc"/></svg>